<?xml version="1.0" encoding="utf-8"?>
<!-- Generator: Adobe Illustrator 20.1.0, SVG Export Plug-In . SVG Version: 6.00 Build 0)  -->
<svg version="1.1" id="Layer_1" xmlns="http://www.w3.org/2000/svg" xmlns:xlink="http://www.w3.org/1999/xlink" x="0px" y="0px"
	 viewBox="0 0 276.2 48" style="enable-background:new 0 0 276.2 48;" xml:space="preserve">
<style type="text/css">
	.st0{fill:#D3CAB6;}
</style>
<g>
	<path class="st0" d="M44.6,18v14.6H42V18h-3.9v-2.4h10.3V18H44.6z"/>
	<path class="st0" d="M53.3,22.2h7.3v-6.6h2.5v17h-2.5v-7.9h-7.3v7.9h-2.5v-17h2.5V22.2z"/>
	<path class="st0" d="M76.6,18h-6.8v4.1h6.6v2.4h-6.6v5.6h6.8v2.5h-9.3v-17h9.3V18z"/>
	<path class="st0" d="M99.4,16.5v3c-1.5-1.2-3-1.9-4.6-1.9c-1.8,0-3.2,0.6-4.4,1.9c-1.2,1.2-1.8,2.8-1.8,4.6c0,1.8,0.6,3.3,1.8,4.5
		c1.2,1.2,2.7,1.9,4.4,1.9c0.9,0,1.7-0.2,2.3-0.5c0.4-0.2,0.7-0.3,1.1-0.6c0.4-0.2,0.8-0.5,1.2-0.9v3.1c-1.5,0.8-3,1.2-4.6,1.2
		c-2.4,0-4.5-0.8-6.2-2.5S86,26.4,86,24c0-2.2,0.7-4.1,2.2-5.8c1.8-2.1,4-3.1,6.8-3.1C96.5,15.3,98.1,15.7,99.4,16.5z"/>
	<path class="st0" d="M105.2,15.6v14.6h5v2.4h-7.6v-17H105.2z"/>
	<path class="st0" d="M111.1,24c0-2.4,0.8-4.5,2.6-6.2c1.8-1.7,3.9-2.5,6.2-2.5c2.4,0,4.5,0.8,6.2,2.6c1.7,1.7,2.6,3.8,2.6,6.2
		s-0.8,4.5-2.6,6.2c-1.8,1.7-3.9,2.5-6.3,2.5c-2.2,0-4.2-0.8-5.9-2.2C112.1,28.9,111.1,26.7,111.1,24z M113.7,24.1
		c0,1.9,0.6,3.4,1.9,4.6c1.2,1.2,2.7,1.8,4.3,1.8c1.8,0,3.3-0.6,4.5-1.9c1.2-1.2,1.9-2.8,1.9-4.6c0-1.8-0.6-3.3-1.8-4.6
		c-1.2-1.2-2.7-1.9-4.5-1.9c-1.8,0-3.2,0.6-4.5,1.9C114.3,20.8,113.7,22.2,113.7,24.1z"/>
	<path class="st0" d="M136.2,18v14.6h-2.5V18h-3.9v-2.4H140V18H136.2z"/>
	<path class="st0" d="M144.9,22.2h7.3v-6.6h2.5v17h-2.5v-7.9h-7.3v7.9h-2.5v-17h2.5V22.2z"/>
	<path class="st0" d="M168.2,18h-6.8v4.1h6.6v2.4h-6.6v5.6h6.8v2.5h-9.3v-17h9.3V18z"/>
	<path class="st0" d="M181.1,18.1l-2.1,1.2c-0.4-0.7-0.8-1.1-1.1-1.3c-0.4-0.2-0.8-0.4-1.4-0.4c-0.7,0-1.3,0.2-1.8,0.6
		c-0.5,0.4-0.7,0.9-0.7,1.5c0,0.8,0.6,1.5,1.9,2l1.7,0.7c1.4,0.5,2.4,1.2,3,2c0.6,0.8,0.9,1.8,0.9,2.9c0,1.5-0.5,2.9-1.5,3.9
		c-1.1,1-2.3,1.5-3.9,1.5c-1.5,0-2.7-0.5-3.6-1.3c-0.9-0.8-1.5-2.1-1.8-3.7l2.6-0.5c0.2,1,0.3,1.7,0.6,2.1c0.5,0.7,1.3,1.1,2.3,1.1
		c0.8,0,1.5-0.2,2-0.8c0.5-0.5,0.8-1.2,0.8-2c0-0.3-0.1-0.6-0.2-0.9c-0.1-0.3-0.2-0.5-0.5-0.8s-0.5-0.5-0.8-0.6
		c-0.3-0.2-0.7-0.4-1.1-0.5l-1.6-0.7c-2.3-1-3.5-2.4-3.5-4.3c0-1.3,0.5-2.3,1.5-3.2c1-0.8,2.2-1.3,3.6-1.3
		C178.5,15.3,180,16.2,181.1,18.1z"/>
	<path class="st0" d="M196.3,18v14.6h-2.5V18h-3.9v-2.4h10.3V18H196.3z"/>
	<path class="st0" d="M208.2,25.3l5.2,7.3h-3.2l-4.9-6.9H205v6.9h-2.5v-17h3c2.2,0,3.9,0.4,4.9,1.2c1.1,0.9,1.6,2.2,1.6,3.7
		c0,1.2-0.3,2.2-1,3.1C210.2,24.5,209.3,25.1,208.2,25.3z M205,23.4h0.8c2.4,0,3.6-0.9,3.6-2.8c0-1.7-1.2-2.6-3.5-2.6H205V23.4z"/>
	<path class="st0" d="M225.4,18h-6.8v4.1h6.6v2.4h-6.6v5.6h6.8v2.5H216v-17h9.3V18z"/>
	<path class="st0" d="M238.1,18h-6.8v4.1h6.6v2.4h-6.6v5.6h6.8v2.5h-9.3v-17h9.3V18z"/>
</g>
</svg>
