<?xml version="1.0" encoding="utf-8"?>
<!-- Generator: Adobe Illustrator 20.1.0, SVG Export Plug-In . SVG Version: 6.00 Build 0)  -->
<svg version="1.1" id="Layer_1" xmlns="http://www.w3.org/2000/svg" xmlns:xlink="http://www.w3.org/1999/xlink" x="0px" y="0px"
	 viewBox="0 0 200 17" style="enable-background:new 0 0 200 17;" xml:space="preserve">
<style type="text/css">
	.st0{fill:#C1B497;}
</style>
<g>
	<path class="st0" d="M19.8,3.4v12.5h-2.2V3.4h-3.3V1.3h8.8v2.1H19.8z"/>
	<path class="st0" d="M27.3,7h6.3V1.3h2.1v14.6h-2.1V9.1h-6.3v6.8h-2.1V1.3h2.1V7z"/>
	<path class="st0" d="M47.3,3.4h-5.8v3.5h5.7V9h-5.7v4.8h5.8v2.1h-8V1.3h8V3.4z"/>
	<path class="st0" d="M66.8,2.1v2.6c-1.3-1-2.6-1.6-3.9-1.6c-1.5,0-2.7,0.5-3.8,1.6c-1,1-1.5,2.4-1.5,3.9s0.5,2.8,1.5,3.9
		c1,1,2.3,1.6,3.8,1.6c0.8,0,1.5-0.2,2-0.4c0.3-0.2,0.6-0.3,0.9-0.5c0.3-0.2,0.7-0.4,1-0.8v2.7c-1.3,0.7-2.6,1-3.9,1
		c-2.1,0-3.9-0.7-5.3-2.1s-2.2-3.3-2.2-5.4c0-1.9,0.6-3.5,1.9-5c1.5-1.8,3.4-2.7,5.8-2.7C64.3,1.1,65.7,1.4,66.8,2.1z"/>
	<path class="st0" d="M71.8,1.3v12.5h4.3v2.1h-6.5V1.3C69.6,1.3,71.8,1.3,71.8,1.3z"/>
	<path class="st0" d="M76.9,8.5c0-2.1,0.7-3.9,2.2-5.3c1.5-1.5,3.3-2.1,5.3-2.1c2.1,0,3.9,0.7,5.3,2.2c1.5,1.5,2.2,3.3,2.2,5.3
		s-0.7,3.9-2.2,5.3c-1.5,1.5-3.3,2.1-5.4,2.1c-1.9,0-3.6-0.7-5.1-1.9C77.7,12.7,76.9,10.9,76.9,8.5z M79.1,8.6
		c0,1.6,0.5,2.9,1.6,3.9c1,1,2.3,1.5,3.7,1.5c1.5,0,2.8-0.5,3.9-1.6c1-1,1.6-2.4,1.6-3.9s-0.5-2.8-1.5-3.9c-1-1-2.3-1.6-3.9-1.6
		s-2.7,0.5-3.9,1.6C79.6,5.8,79.1,7,79.1,8.6z"/>
	<path class="st0" d="M98.4,3.4v12.5h-2.1V3.4h-3.3V1.3h8.7v2.1H98.4z"/>
	<path class="st0" d="M105.8,7h6.3V1.3h2.1v14.6h-2.1V9.1h-6.3v6.8h-2.1V1.3h2.1V7z"/>
	<path class="st0" d="M125.8,3.4H120v3.5h5.7V9H120v4.8h5.8v2.1h-8V1.3h8V3.4z"/>
	<path class="st0" d="M136.9,3.5l-1.8,1c-0.3-0.6-0.7-0.9-0.9-1.1c-0.3-0.2-0.7-0.3-1.2-0.3c-0.6,0-1.1,0.2-1.5,0.5
		c-0.4,0.3-0.6,0.8-0.6,1.3c0,0.7,0.5,1.3,1.6,1.7l1.5,0.6c1.2,0.4,2.1,1,2.6,1.7c0.5,0.7,0.8,1.5,0.8,2.5c0,1.3-0.4,2.5-1.3,3.3
		c-0.9,0.9-2,1.3-3.3,1.3c-1.3,0-2.3-0.4-3.1-1.1c-0.8-0.7-1.3-1.8-1.5-3.2l2.2-0.4c0.2,0.9,0.3,1.5,0.5,1.8c0.4,0.6,1.1,0.9,2,0.9
		c0.7,0,1.3-0.2,1.7-0.7c0.4-0.4,0.7-1,0.7-1.7c0-0.3-0.1-0.5-0.2-0.8c-0.1-0.3-0.2-0.4-0.4-0.7c-0.3-0.3-0.4-0.4-0.7-0.5
		c-0.3-0.2-0.6-0.3-0.9-0.4l-1.4-0.6c-2-0.9-3-2.1-3-3.7c0-1.1,0.4-2,1.3-2.7c0.9-0.7,1.9-1.1,3.1-1.1
		C134.6,1.1,135.9,1.9,136.9,3.5z"/>
	<path class="st0" d="M149.9,3.4v12.5h-2.1V3.4h-3.3V1.3h8.8v2.1H149.9z"/>
	<path class="st0" d="M160.1,9.7l4.5,6.3h-2.7l-4.2-5.9h-0.3v5.9h-2.1V1.3h2.6c1.9,0,3.3,0.3,4.2,1c0.9,0.8,1.4,1.9,1.4,3.2
		c0,1-0.3,1.9-0.9,2.7C161.8,9,161,9.5,160.1,9.7z M157.4,8h0.7c2.1,0,3.1-0.8,3.1-2.4c0-1.5-1-2.2-3-2.2h-0.8V8z"/>
	<path class="st0" d="M174.8,3.4H169v3.5h5.7V9H169v4.8h5.8v2.1h-8.1V1.3h8L174.8,3.4L174.8,3.4z"/>
	<path class="st0" d="M185.7,3.4h-5.8v3.5h5.7V9h-5.7v4.8h5.8v2.1h-8V1.3h8V3.4z"/>
</g>
</svg>
