<?xml version="1.0" encoding="utf-8"?>
<!-- Generator: Adobe Illustrator 20.1.0, SVG Export Plug-In . SVG Version: 6.00 Build 0)  -->
<svg version="1.1" id="Layer_1" xmlns="http://www.w3.org/2000/svg" xmlns:xlink="http://www.w3.org/1999/xlink" x="0px" y="0px"
	 viewBox="0 0 100 100" style="enable-background:new 0 0 100 100;" xml:space="preserve">
<style type="text/css">
	.st0{display:none;fill:none;stroke:#666666;stroke-width:3;stroke-miterlimit:10;}
	.st1{fill:none;stroke:#666666;stroke-width:3;stroke-miterlimit:10;}
</style>
<line class="st0" x1="30" y1="39.5" x2="70" y2="39.5"/>
<line class="st0" x1="30" y1="50.5" x2="70" y2="50.5"/>
<line class="st0" x1="30" y1="61.5" x2="70" y2="61.5"/>
<path class="st1" d="M67.9,64c-0.4,0.4-0.6,0.8-1.1,1.1c-0.6,0.6-1.3,1.3-1.9,1.9c-1.1,1.1-2.1,1.5-3.6,1.5c-0.2,0-0.2,0-0.4,0
	c-2.8-0.2-5.6-1.3-7.4-2.1c-5.3-2.6-10.1-6.2-14-10.9c-3.2-3.8-5.3-7.4-6.9-11.2c-0.8-2.3-1.3-4.2-1.1-5.9c0-1.1,0.6-2.1,1.3-3
	l3.2-3.2c0.4-0.4,1.1-0.6,1.5-0.6s1.1,0.2,1.5,0.6c0.6,0.6,1.1,1.1,1.7,1.7c0.2,0.2,0.6,0.6,0.8,0.8l2.6,2.5
	c0.6,0.6,0.8,1.1,0.8,1.5c0,0.3-0.2,1.1-0.8,1.5c-0.2,0.2-0.6,0.6-0.8,0.8c-0.8,0.8-1.5,1.5-2.3,2.3l0,0c-0.6,0.6-0.6,1.5-0.4,1.9
	l0,0c0.6,1.5,1.5,3.2,3,4.9c2.6,3.2,5.3,5.7,8.4,7.6c0.4,0.2,0.8,0.4,1.1,0.6c0.4,0.2,0.6,0.2,0.8,0.4l0,0c0.2,0.2,0.6,0.2,0.8,0.2
	c0.6,0,1.3-0.4,1.3-0.6l3.2-3.2c0.4-0.4,1.1-0.6,1.5-0.6c0.6,0,1.1,0.4,1.5,0.6l5.1,5.1C69.1,62.1,68.5,63.4,67.9,64z"/>
</svg>
